<svg width="24" height="24" fill="none" xmlns="http://www.w3.org/2000/svg"><path fill-rule="evenodd" clip-rule="evenodd" d="M9.139 1.067c-4.217.695-7.449 3.946-8.062 8.11-.133.905-.089 2.524.091 3.364 1.114 5.188 6.075 8.468 11.306 7.476 1.4-.266 2.825-.93 4.066-1.895l.367-.286 2.489 2.494c1.369 1.372 2.562 2.533 2.651 2.58.596.318 1.18-.267.864-.863-.048-.09-1.208-1.283-2.58-2.653l-2.493-2.49.286-.367c1.795-2.31 2.457-5.132 1.868-7.954-.771-3.697-3.699-6.614-7.45-7.425-.741-.16-2.67-.212-3.403-.091zm3.171 1.357a8.025 8.025 0 012.848 1.196c1.87 1.24 3.127 3.087 3.605 5.302.131.607.18 2.058.09 2.726a8.351 8.351 0 01-7.2 7.204c-.668.089-2.119.04-2.725-.09-3.3-.715-5.795-3.203-6.503-6.487-.177-.822-.193-2.45-.03-3.253C3.071 5.66 5.702 3.03 9.018 2.4c.756-.143.79-.145 1.773-.122.643.014 1.114.06 1.518.146z" fill="#DE596D"/></svg>