<svg width="32" height="32" fill="none" xmlns="http://www.w3.org/2000/svg"><path fill-rule="evenodd" clip-rule="evenodd" d="M14.495.037C6.115.846-.26 8.052.008 16.41c.078 2.43.604 4.535 1.67 6.683a15.832 15.832 0 007.188 7.187 15.974 15.974 0 0015.87-.918c1.859-1.214 3.62-3.013 4.822-4.925.457-.728 1.147-2.141 1.46-2.992.316-.857.685-2.346.821-3.316.139-.984.157-3.259.034-4.125-.369-2.596-1.192-4.805-2.558-6.87a15.085 15.085 0 00-1.97-2.403C24.852 2.211 21.75.646 18.205.123c-.764-.113-2.913-.163-3.71-.086zm3.18 8.115c2.73.63 4.88 2.534 5.797 5.133.336.951.42 1.484.416 2.625-.003.88-.028 1.133-.166 1.724-.73 3.13-3.125 5.442-6.286 6.069-.365.072-.85.108-1.48.108-1.117.002-1.886-.142-2.89-.539l-.638-.253-2.018.478c-1.11.263-2.052.477-2.094.477-.042-.001-.117-.065-.168-.142-.082-.128-.05-.334.34-2.216l.43-2.076-.252-.602c-.419-1.003-.576-1.818-.58-2.997-.004-1.434.211-2.36.843-3.629 1.056-2.12 3.148-3.717 5.464-4.174.782-.154.82-.157 1.812-.132.635.016 1.11.063 1.47.146zm-2.792 1.66c-2.028.384-3.822 1.81-4.585 3.642-.381.916-.458 1.323-.463 2.456-.005 1.223.098 1.703.586 2.73l.303.635-.246 1.174c-.135.646-.237 1.206-.228 1.244.012.045.434-.028 1.218-.212l1.2-.28.613.287c1.007.473 1.494.576 2.706.576.88 0 1.109-.021 1.562-.144a6.242 6.242 0 004.073-3.423c.423-.904.512-1.341.517-2.556.003-.926-.015-1.13-.141-1.594-.603-2.207-2.267-3.851-4.5-4.448-.618-.165-1.97-.21-2.615-.088zM13.668 12.2c.144.1.407.618.763 1.502.207.513.196.585-.16 1.051-.309.405-.301.636.037 1.074.613.795 2.22 2.083 2.6 2.083.211 0 .375-.098.747-.446.178-.167.375-.304.437-.304.063 0 .507.112.989.249.675.192.907.285 1.015.41.222.253.186.516-.13.944-.568.773-.98.988-1.886.988-.746 0-1.294-.147-2.074-.56-.733-.387-1.269-.786-2.013-1.5-1.345-1.29-2.007-2.497-2.006-3.654.001-.638.38-1.328.964-1.758.28-.205.502-.23.717-.079z" fill="#fff"/></svg>