<svg width="24" height="16" fill="none" xmlns="http://www.w3.org/2000/svg"><path fill-rule="evenodd" clip-rule="evenodd" d="M10.688.332C7.73.782 4.755 2.465 1.944 5.275 1.023 6.197.325 7.007.17 7.337c-.102.215-.122.324-.122.656 0 .532.111.76.707 1.45 2.054 2.381 4.738 4.433 7.07 5.407 1.613.673 2.832.908 4.497.865 1.59-.04 2.848-.354 4.462-1.11 1.876-.88 4.131-2.593 5.865-4.455C23.875 8.83 24 8.632 24 7.993c0-.546-.108-.758-.775-1.523-1.8-2.063-3.9-3.764-5.954-4.823C15.865.923 14.656.518 13.336.331c-.616-.088-2.069-.087-2.649.001zm2.237 2.573a5.386 5.386 0 011.981.798c.362.236 1.171 1.045 1.408 1.408.585.897.86 1.81.864 2.865.005 1.673-.735 3.153-2.084 4.168-.89.67-1.92 1.006-3.08 1.006A5.123 5.123 0 016.869 8c.004-1.387.468-2.556 1.404-3.54.558-.585 1.151-.994 1.841-1.267.31-.122.901-.283 1.183-.322.33-.046 1.294-.026 1.628.034zM11.486 4.34a3.785 3.785 0 00-2.324 1.324c-.29.355-.623 1.02-.732 1.463-.116.473-.106 1.34.021 1.812.35 1.293 1.35 2.28 2.682 2.647.457.125 1.36.115 1.842-.02 1.959-.554 3.097-2.483 2.632-4.462-.098-.417-.434-1.088-.723-1.44-.476-.583-1.274-1.09-1.97-1.253-.395-.093-1.074-.126-1.428-.07z" fill="#fff"/></svg>