<svg width="32" height="32" fill="none" xmlns="http://www.w3.org/2000/svg"><path fill-rule="evenodd" clip-rule="evenodd" d="M14.478.037C9.05.561 4.203 3.85 1.746 8.674.878 10.38.364 12.025.083 14.004c-.124.877-.106 3.147.033 4.125a16.21 16.21 0 001.545 4.964 15.832 15.832 0 007.188 7.187 15.974 15.974 0 0015.87-.918c1.859-1.214 3.62-3.013 4.822-4.925.457-.728 1.147-2.141 1.46-2.992.316-.857.684-2.346.82-3.316.14-.984.158-3.259.035-4.125-.37-2.596-1.192-4.805-2.559-6.87a15.09 15.09 0 00-1.97-2.403C24.834 2.211 21.734.646 18.188.123c-.764-.113-2.913-.163-3.71-.086zm5.936 8.08c1.743.523 2.992 1.812 3.436 3.543.13.505.13 8.12 0 8.625a4.876 4.876 0 01-3.568 3.568c-.506.13-8.12.13-8.625 0-1.746-.447-3.05-1.723-3.548-3.468-.098-.345-.108-.772-.108-4.413 0-4.406-.01-4.281.376-5.153.591-1.336 1.931-2.445 3.28-2.714.189-.038.4-.08.469-.095.068-.014 1.882-.02 4.03-.013 3.46.012 3.947.026 4.258.12zm-8.49 1.577c-.538.145-.961.397-1.399.834-.447.448-.69.863-.837 1.425-.14.538-.138 7.509.002 8.048.148.568.444 1.06.885 1.473.445.416.841.641 1.375.78.538.14 7.509.138 8.048-.002a3.033 3.033 0 001.473-.886c.416-.444.641-.84.78-1.375.138-.53.138-7.507 0-8.038-.139-.534-.364-.93-.78-1.375a3.033 3.033 0 00-1.473-.885c-.522-.136-7.57-.135-8.075 0zm8.454 1.16c.34.086.69.447.752.777.094.501-.29 1.102-.76 1.19-.518.098-.961-.125-1.165-.584-.242-.549.028-1.153.608-1.358.308-.11.24-.106.565-.024zm-3.506 1.087c1.146.243 2.252 1.105 2.773 2.16.35.712.47 1.29.432 2.09-.052 1.09-.423 1.908-1.233 2.72-.775.779-1.76 1.183-2.88 1.185-1.129.002-2.077-.396-2.902-1.217-.819-.816-1.218-1.768-1.218-2.907 0-1.137.399-2.088 1.218-2.907 1.025-1.026 2.382-1.426 3.81-1.124zm-1.799 1.681c-.714.3-1.083.65-1.402 1.33-.152.324-.17.436-.17 1.02 0 .608.014.688.199 1.077.249.525.67.945 1.207 1.2.374.177.459.192 1.062.192.608 0 .688-.015 1.075-.198a2.476 2.476 0 001.196-1.196c.183-.387.198-.467.198-1.075 0-.607-.015-.687-.198-1.075a2.476 2.476 0 00-1.196-1.195c-.364-.173-.495-.2-1.012-.215-.513-.015-.644.004-.959.135z" fill="#fff"/></svg>