<svg width="32" height="32" viewBox="0 0 32 32" fill="none" xmlns="http://www.w3.org/2000/svg">
<path fill-rule="evenodd" clip-rule="evenodd" d="M15.0207 3.02447C13.0939 3.209 11.6608 3.61651 10.0384 4.44126C8.11639 5.41816 6.39174 6.96299 5.13421 8.83394C4.60176 9.62611 3.9511 10.9634 3.63869 11.9077C3.38653 12.6699 3.18621 13.5373 3.06379 14.3972C2.97874 14.9948 2.97874 17.0005 3.06379 17.5981C3.27681 19.0946 3.6726 20.4055 4.29097 21.6626C4.99058 23.0849 5.67586 24.0404 6.8072 25.171C7.9262 26.2892 8.89724 26.9875 10.2671 27.6591C11.223 28.1277 11.8401 28.3557 12.8091 28.5986C15.3519 29.236 17.9021 29.1138 20.3863 28.2355C21.1393 27.9693 22.4539 27.3109 23.1297 26.8616C24.649 25.8512 26.0438 24.4223 27.0391 22.8565C27.4053 22.2804 27.9938 21.065 28.2339 20.389C29.4282 17.0257 29.2203 13.416 27.6507 10.262C27.0172 8.9891 26.312 7.99151 25.3219 6.96761C24.2239 5.83208 23.1469 5.04865 21.7062 4.33726C20.2002 3.5937 18.7971 3.1968 17.1306 3.04291C16.6126 2.9951 15.4351 2.98479 15.0207 3.02447ZM17.4264 4.16375C22.0382 4.72999 25.9062 7.93258 27.3419 12.3735C27.981 14.3508 28.081 16.551 27.6249 18.6057C27.2519 20.2859 26.4187 22.0213 25.3097 23.4276C24.9355 23.9021 23.8964 24.9406 23.4215 25.3146C21.6679 26.6956 19.598 27.5598 17.3715 27.8405C16.2387 27.9833 14.5838 27.8957 13.3819 27.6293C12.1871 27.3644 10.7685 26.7865 9.73717 26.1445C8.69114 25.4932 7.36446 24.321 6.66256 23.4276C5.27707 21.6643 4.41878 19.6108 4.13555 17.3816C4.05456 16.7441 4.05477 15.2523 4.13596 14.6005C4.34578 12.916 4.97436 11.1324 5.86071 9.70623C6.72815 8.31048 8.17674 6.83993 9.54139 5.96967C10.3784 5.4359 11.3875 4.96421 12.377 4.64418C13.2718 4.35483 14.1333 4.19251 15.3257 4.08871C15.6643 4.05924 16.9489 4.10512 17.4264 4.16375ZM15.7488 7.39169C15.4145 7.55646 15.4274 7.37421 15.4274 11.9248C15.4274 14.6804 15.4451 16.0892 15.4809 16.1849C15.5409 16.3453 21.4078 22.2431 21.6712 22.4078C22.0877 22.6682 22.6112 22.2567 22.4681 21.7813C22.4485 21.716 21.1079 20.3361 19.4891 18.7148L16.5459 15.767V11.7874C16.5459 7.37452 16.5592 7.55239 16.2165 7.38986C16.0081 7.29099 15.9526 7.29125 15.7488 7.39169Z" fill="#DE596D"/>
</svg>
