<svg width="30" height="31" viewBox="0 0 30 31" fill="none" xmlns="http://www.w3.org/2000/svg">
<path fill-rule="evenodd" clip-rule="evenodd" d="M5.8715 4.13839C5.58344 4.25172 5.40572 4.52567 5.40572 4.85624C5.40572 5.10461 5.52043 5.31411 5.74664 5.47903C5.8675 5.56714 5.95026 5.57593 6.7829 5.58893L7.68783 5.60312L7.68862 7.92334C7.68951 10.4338 7.70357 10.6101 7.94445 11.1272C8.01054 11.269 8.14695 11.4923 8.24769 11.6234C8.34983 11.7564 9.263 12.5708 10.313 13.4653C12.4073 15.2495 12.4388 15.2842 12.4379 15.8025C12.437 16.3304 12.4243 16.3444 10.3342 18.1244C9.29821 19.0067 8.38276 19.8088 8.29985 19.9067C8.21695 20.0046 8.07653 20.229 7.98776 20.4052C7.70152 20.9734 7.68955 21.1047 7.68862 23.6867L7.68783 26.0069L6.7829 26.0211C5.95026 26.0341 5.8675 26.0429 5.74664 26.131C5.28425 26.4681 5.28435 27.0675 5.74678 27.4042L5.8783 27.5H14.9999H24.1215L24.253 27.4042C24.7155 27.0675 24.7155 26.4681 24.2532 26.131C24.1323 26.0429 24.0495 26.0341 23.2169 26.0211L22.312 26.0069L22.3112 23.8698C22.3103 21.5612 22.2934 21.3601 22.0577 20.8541C21.9929 20.715 21.8616 20.4964 21.7659 20.3682C21.6658 20.2343 20.7202 19.3862 19.5417 18.3736C18.4141 17.4046 17.4579 16.5694 17.4167 16.5174C17.0766 16.0885 17.083 15.4913 17.4323 15.0698C17.4649 15.0304 18.4146 14.2049 19.5427 13.2352C20.7124 12.2297 21.6682 11.3726 21.7669 11.2405C21.8621 11.113 21.9929 10.895 22.0577 10.7559C22.2934 10.25 22.3103 10.0489 22.3112 7.74025L22.312 5.60312L23.2169 5.58893C24.0495 5.57593 24.1323 5.56714 24.2532 5.47903C24.7155 5.14196 24.7155 4.54256 24.253 4.20581L24.1215 4.11005L15.0547 4.10131C9.09398 4.09559 5.94802 4.10831 5.8715 4.13839ZM20.7651 7.78332L20.7518 9.96898L20.6349 10.175C20.548 10.3279 20.0089 10.8189 18.539 12.0835C17.4507 13.0199 16.4515 13.8999 16.3187 14.0391C15.9083 14.4694 15.607 15.217 15.607 15.805C15.607 16.4089 15.9106 17.147 16.3429 17.5946C16.488 17.7447 17.4759 18.6136 18.5382 19.5254C19.6006 20.4373 20.5173 21.253 20.5753 21.3381C20.6334 21.4233 20.702 21.5675 20.7277 21.6585C20.7559 21.7583 20.7746 22.6566 20.7748 23.9183L20.775 26.0124H14.9983H9.22155L9.23482 23.6436C9.24782 21.3125 9.24963 21.272 9.34907 21.0918C9.4825 20.85 9.62558 20.7198 11.4836 19.1496C13.1863 17.7108 13.2906 17.6133 13.5585 17.2113C14.1747 16.2866 14.0916 14.9997 13.3592 14.1257C13.2498 13.9952 12.4267 13.2664 11.5302 12.5062C9.62711 10.8926 9.48334 10.7616 9.34907 10.5183C9.24963 10.338 9.24782 10.2976 9.23482 7.96642L9.22155 5.59767H15H20.7785L20.7651 7.78332ZM14.7198 16.0224C14.7181 16.5357 14.4355 17.2611 14.0636 17.7061C13.9592 17.8312 13.0537 18.634 12.0515 19.4901C11.0492 20.3463 10.1814 21.1166 10.1229 21.2019L10.0165 21.3571V23.1939C10.0165 24.7823 10.0263 25.0445 10.089 25.1325L10.1615 25.2342H14.9999H19.8383L19.9108 25.1325C19.9732 25.045 19.9833 24.7997 19.9833 23.377C19.9833 21.7346 19.9825 21.7222 19.8777 21.5677C19.8196 21.4822 18.8923 20.6568 17.8168 19.7334C16.7414 18.81 15.7506 17.9346 15.615 17.788C15.1953 17.3341 14.8636 16.5374 14.861 15.9767C14.8604 15.855 14.8399 15.805 14.7903 15.805C14.7381 15.805 14.7203 15.86 14.7198 16.0224Z" fill="#DE596D"/>
</svg>
