<svg width="70" height="70" fill="none" xmlns="http://www.w3.org/2000/svg"><circle cx="35" cy="35" r="35" fill="#DE596D"/><path d="M18.432 20.025c1.89 0 3.42-1.54 3.42-3.441 0-1.9-1.53-3.441-3.42-3.441-1.888 0-3.42 1.54-3.42 3.44 0 1.901 1.532 3.442 3.42 3.442z" fill="#FFFEF6"/><path d="M18.47 23.651c-.96 0-2.277-.05-2.83-.05-.283 0-.64.347-.64.706v31.71c0 .631.517.965 1.304.965h16.203c9.953 0 20.151-10.99 20.151-20.83 0-9.84-7.849-15.286-15.046-14.457 6.951 4.221 8.194 9.667 8.083 14.457-.123 5.31-4.047 14.01-16.658 14.01h-6.582c-.282 0-.54-.16-.54-.841V24.975c0-.334.098-.841-.247-1.213-.344-.37-2.239-.11-3.199-.11z" fill="#FFFEFF"/><path d="M26.921 48.677c-.96 0-2.276.05-2.83.05-.282 0-.64-.347-.64-.706V14.108c0-.63.518-.965 1.305-.965.787 0 5.13-.322 16.56 0 9.948.28 19.794 10.558 19.794 20.83 0 9.84-6.52 22.502-21.27 22.873 15.55-8.75 14.307-20.211 14.307-22.872 0-5.312-3.358-14.011-16.658-14.011h-6.582c-.283 0-.541.16-.541.841v26.549c0 .334.098.842-.246 1.213-.345.371-2.24.111-3.199.111z" fill="#DA9096"/></svg>