<?xml version="1.0" encoding="utf-8"?><svg viewBox="0 0 57 32" xmlns="http://www.w3.org/2000/svg" xmlns:xlink="http://www.w3.org/1999/xlink"><style>:root>svg{display:none}:root>svg:target{display:block}</style><svg viewBox="0 0 57 6" id="icon-arrow-large" xmlns="http://www.w3.org/2000/svg"><path d="M56.5 3l-5-2.887v5.774L56.5 3zm-56 .5H52v-1H.5v1z"/></svg><svg viewBox="0 0 24 16" id="icon-eye" xmlns="http://www.w3.org/2000/svg"><path fill-rule="evenodd" clip-rule="evenodd" d="M10.688.332C7.73.782 4.755 2.465 1.944 5.275 1.023 6.197.325 7.007.17 7.337c-.102.215-.122.324-.122.656 0 .532.111.76.707 1.45 2.054 2.381 4.738 4.433 7.07 5.407 1.613.673 2.832.908 4.497.865 1.59-.04 2.848-.354 4.462-1.11 1.876-.88 4.131-2.593 5.865-4.455C23.875 8.83 24 8.632 24 7.993c0-.546-.108-.758-.775-1.523-1.8-2.063-3.9-3.764-5.954-4.823C15.865.923 14.656.518 13.336.331c-.616-.088-2.069-.087-2.649.001zm2.237 2.573a5.386 5.386 0 011.981.798c.362.236 1.171 1.045 1.408 1.408.585.897.86 1.81.864 2.865.005 1.673-.735 3.153-2.084 4.168-.89.67-1.92 1.006-3.08 1.006A5.123 5.123 0 016.869 8c.004-1.387.468-2.556 1.404-3.54.558-.585 1.151-.994 1.841-1.267.31-.122.901-.283 1.183-.322.33-.046 1.294-.026 1.628.034zM11.486 4.34a3.785 3.785 0 00-2.324 1.324c-.29.355-.623 1.02-.732 1.463-.116.473-.106 1.34.021 1.812.35 1.293 1.35 2.28 2.682 2.647.457.125 1.36.115 1.842-.02 1.959-.554 3.097-2.483 2.632-4.462-.098-.417-.434-1.088-.723-1.44-.476-.583-1.274-1.09-1.97-1.253-.395-.093-1.074-.126-1.428-.07z"/></svg><svg viewBox="0 0 32 32" id="icon-insta" xmlns="http://www.w3.org/2000/svg"><path fill-rule="evenodd" clip-rule="evenodd" d="M14.478.037C9.05.561 4.203 3.85 1.746 8.674.878 10.38.364 12.025.083 14.004c-.124.877-.106 3.147.033 4.125a16.21 16.21 0 001.545 4.964 15.832 15.832 0 007.188 7.187 15.974 15.974 0 0015.87-.918c1.859-1.214 3.62-3.013 4.822-4.925.457-.728 1.147-2.141 1.46-2.992.316-.857.684-2.346.82-3.316.14-.984.158-3.259.035-4.125-.37-2.596-1.192-4.805-2.559-6.87a15.09 15.09 0 00-1.97-2.403C24.834 2.211 21.734.646 18.188.123c-.764-.113-2.913-.163-3.71-.086zm5.936 8.08c1.743.523 2.992 1.812 3.436 3.543.13.505.13 8.12 0 8.625a4.876 4.876 0 01-3.568 3.568c-.506.13-8.12.13-8.625 0-1.746-.447-3.05-1.723-3.548-3.468-.098-.345-.108-.772-.108-4.413 0-4.406-.01-4.281.376-5.153.591-1.336 1.931-2.445 3.28-2.714.189-.038.4-.08.469-.095.068-.014 1.882-.02 4.03-.013 3.46.012 3.947.026 4.258.12zm-8.49 1.577c-.538.145-.961.397-1.399.834-.447.448-.69.863-.837 1.425-.14.538-.138 7.509.002 8.048.148.568.444 1.06.885 1.473.445.416.841.641 1.375.78.538.14 7.509.138 8.048-.002a3.033 3.033 0 001.473-.886c.416-.444.641-.84.78-1.375.138-.53.138-7.507 0-8.038-.139-.534-.364-.93-.78-1.375a3.033 3.033 0 00-1.473-.885c-.522-.136-7.57-.135-8.075 0zm8.454 1.16c.34.086.69.447.752.777.094.501-.29 1.102-.76 1.19-.518.098-.961-.125-1.165-.584-.242-.549.028-1.153.608-1.358.308-.11.24-.106.565-.024zm-3.506 1.087c1.146.243 2.252 1.105 2.773 2.16.35.712.47 1.29.432 2.09-.052 1.09-.423 1.908-1.233 2.72-.775.779-1.76 1.183-2.88 1.185-1.129.002-2.077-.396-2.902-1.217-.819-.816-1.218-1.768-1.218-2.907 0-1.137.399-2.088 1.218-2.907 1.025-1.026 2.382-1.426 3.81-1.124zm-1.799 1.681c-.714.3-1.083.65-1.402 1.33-.152.324-.17.436-.17 1.02 0 .608.014.688.199 1.077.249.525.67.945 1.207 1.2.374.177.459.192 1.062.192.608 0 .688-.015 1.075-.198a2.476 2.476 0 001.196-1.196c.183-.387.198-.467.198-1.075 0-.607-.015-.687-.198-1.075a2.476 2.476 0 00-1.196-1.195c-.364-.173-.495-.2-1.012-.215-.513-.015-.644.004-.959.135z"/></svg><svg viewBox="0 0 17 20" id="icon-play" xmlns="http://www.w3.org/2000/svg"><path d="M17 10L.5 19.526V.474L17 10z"/></svg><svg viewBox="0 0 24 24" id="icon-search" xmlns="http://www.w3.org/2000/svg"><path fill-rule="evenodd" clip-rule="evenodd" d="M9.139 1.067c-4.217.695-7.449 3.946-8.062 8.11-.133.905-.089 2.524.091 3.364 1.114 5.188 6.075 8.468 11.306 7.476 1.4-.266 2.825-.93 4.066-1.895l.367-.286 2.489 2.494c1.369 1.372 2.562 2.533 2.651 2.58.596.318 1.18-.267.864-.863-.048-.09-1.208-1.283-2.58-2.653l-2.493-2.49.286-.367c1.795-2.31 2.457-5.132 1.868-7.954-.771-3.697-3.699-6.614-7.45-7.425-.741-.16-2.67-.212-3.403-.091zm3.171 1.357a8.025 8.025 0 012.848 1.196c1.87 1.24 3.127 3.087 3.605 5.302.131.607.18 2.058.09 2.726a8.351 8.351 0 01-7.2 7.204c-.668.089-2.119.04-2.725-.09-3.3-.715-5.795-3.203-6.503-6.487-.177-.822-.193-2.45-.03-3.253C3.071 5.66 5.702 3.03 9.018 2.4c.756-.143.79-.145 1.773-.122.643.014 1.114.06 1.518.146z"/></svg><svg viewBox="0 0 32 32" id="icon-whatsup" xmlns="http://www.w3.org/2000/svg"><path fill-rule="evenodd" clip-rule="evenodd" d="M14.495.037C6.115.846-.26 8.052.008 16.41c.078 2.43.604 4.535 1.67 6.683a15.832 15.832 0 007.188 7.187 15.974 15.974 0 0015.87-.918c1.859-1.214 3.62-3.013 4.822-4.925.457-.728 1.147-2.141 1.46-2.992.316-.857.685-2.346.821-3.316.139-.984.157-3.259.034-4.125-.369-2.596-1.192-4.805-2.558-6.87a15.085 15.085 0 00-1.97-2.403C24.852 2.211 21.75.646 18.205.123c-.764-.113-2.913-.163-3.71-.086zm3.18 8.115c2.73.63 4.88 2.534 5.797 5.133.336.951.42 1.484.416 2.625-.003.88-.028 1.133-.166 1.724-.73 3.13-3.125 5.442-6.286 6.069-.365.072-.85.108-1.48.108-1.117.002-1.886-.142-2.89-.539l-.638-.253-2.018.478c-1.11.263-2.052.477-2.094.477-.042-.001-.117-.065-.168-.142-.082-.128-.05-.334.34-2.216l.43-2.076-.252-.602c-.419-1.003-.576-1.818-.58-2.997-.004-1.434.211-2.36.843-3.629 1.056-2.12 3.148-3.717 5.464-4.174.782-.154.82-.157 1.812-.132.635.016 1.11.063 1.47.146zm-2.792 1.66c-2.028.384-3.822 1.81-4.585 3.642-.381.916-.458 1.323-.463 2.456-.005 1.223.098 1.703.586 2.73l.303.635-.246 1.174c-.135.646-.237 1.206-.228 1.244.012.045.434-.028 1.218-.212l1.2-.28.613.287c1.007.473 1.494.576 2.706.576.88 0 1.109-.021 1.562-.144a6.242 6.242 0 004.073-3.423c.423-.904.512-1.341.517-2.556.003-.926-.015-1.13-.141-1.594-.603-2.207-2.267-3.851-4.5-4.448-.618-.165-1.97-.21-2.615-.088zM13.668 12.2c.144.1.407.618.763 1.502.207.513.196.585-.16 1.051-.309.405-.301.636.037 1.074.613.795 2.22 2.083 2.6 2.083.211 0 .375-.098.747-.446.178-.167.375-.304.437-.304.063 0 .507.112.989.249.675.192.907.285 1.015.41.222.253.186.516-.13.944-.568.773-.98.988-1.886.988-.746 0-1.294-.147-2.074-.56-.733-.387-1.269-.786-2.013-1.5-1.345-1.29-2.007-2.497-2.006-3.654.001-.638.38-1.328.964-1.758.28-.205.502-.23.717-.079z"/></svg></svg>