<svg width="32" height="32" fill="none" xmlns="http://www.w3.org/2000/svg"><path fill-rule="evenodd" clip-rule="evenodd" d="M15.02 3.024c-1.926.185-3.36.593-4.982 1.417-1.922.977-3.646 2.522-4.904 4.393-.532.792-1.183 2.13-1.495 3.074a14.66 14.66 0 00-.575 2.49c-.085.597-.085 2.602 0 3.2.213 1.497.609 2.808 1.227 4.065.7 1.422 1.385 2.377 2.516 3.508 1.12 1.118 2.09 1.817 3.46 2.488.956.469 1.573.697 2.542.94 2.543.637 5.093.515 7.577-.364.753-.266 2.068-.924 2.744-1.373a13.829 13.829 0 003.91-4.005c.365-.577.954-1.792 1.194-2.468 1.194-3.363.986-6.973-.583-10.127a12.556 12.556 0 00-2.33-3.294c-1.097-1.136-2.174-1.92-3.615-2.63a12.448 12.448 0 00-4.575-1.295c-.518-.048-1.696-.058-2.11-.019zm2.406 1.14a11.965 11.965 0 019.916 8.21c.639 1.977.739 4.177.283 6.232-.373 1.68-1.206 3.415-2.315 4.822-.374.474-1.414 1.513-1.888 1.887a12.189 12.189 0 01-6.05 2.525c-1.133.143-2.788.056-3.99-.21a12.642 12.642 0 01-3.645-1.485c-1.046-.652-2.373-1.824-3.074-2.717a12.185 12.185 0 01-2.527-6.046c-.081-.638-.081-2.13 0-2.782.21-1.684.838-3.468 1.725-4.894C6.728 8.31 8.177 6.84 9.54 5.97a12.695 12.695 0 012.836-1.326c.895-.29 1.756-.451 2.949-.555.338-.03 1.623.016 2.1.075zM15.75 7.392c-.335.164-.322-.018-.322 4.533 0 2.755.018 4.164.054 4.26.06.16 5.927 6.058 6.19 6.223.417.26.94-.151.797-.627-.02-.065-1.36-1.445-2.979-3.066l-2.943-2.948v-3.98c0-4.412.013-4.235-.33-4.397-.208-.099-.263-.099-.467.002z" fill="#DE596D"/></svg>