<svg width="32" height="33" fill="none" xmlns="http://www.w3.org/2000/svg"><path fill-rule="evenodd" clip-rule="evenodd" d="M15.524 4.182c-.458.303-1.515 1.274-2.096 1.924-1.537 1.721-2.559 3.548-3.146 5.624-.218.773-.441 2.014-.441 2.458 0 .167-.028.32-.063.342-.035.021-.239-.068-.453-.199-.84-.511-2.075-1.053-3.11-1.365-1.44-.433-2.746-.616-4.437-.62-1.76-.005-1.72-.047-1.714 1.803.005 1.73.168 2.877.624 4.384.69 2.285 1.91 4.279 3.694 6.041 2.458 2.428 5.511 3.905 8.957 4.335.981.122 4.397.122 5.38 0 4.862-.606 9.083-3.407 11.488-7.624.63-1.103 1.218-2.7 1.5-4.068.215-1.048.281-1.757.286-3.068.006-1.85.045-1.808-1.715-1.805-1.718.004-3.025.19-4.5.643-1.014.311-2.24.861-3.22 1.444l-.316.187-.077-.732c-.35-3.297-1.951-6.373-4.58-8.796-1.25-1.152-1.517-1.27-2.062-.908zm1.465 2.27c1.304 1.292 2.188 2.543 2.862 4.052.599 1.339.975 2.976 1.005 4.373l.016.721-.772.745a15.583 15.583 0 00-3.759 5.67c-.153.405-.293.735-.312.735-.019 0-.116-.218-.216-.484-.887-2.362-2.123-4.254-3.882-5.944l-.778-.748v-.445c0-2.8 1.23-5.811 3.305-8.09.462-.507 1.502-1.476 1.585-1.476.026 0 .451.4.946.89zm-13.993 7.33c3.138.188 6.463 1.802 8.618 4.184 2.289 2.529 3.513 5.472 3.704 8.9l.043.776-.838-.04c-4.48-.218-8.555-2.528-10.996-6.235-1-1.518-1.725-3.49-1.963-5.338-.113-.877-.19-2.185-.132-2.278.03-.047.193-.06.492-.038l1.072.07zm27.612.717c-.09 4.986-2.917 9.378-7.486 11.628-1.819.896-3.641 1.375-5.61 1.474l-.816.041.044-.775c.088-1.562.335-2.81.824-4.16 1.528-4.216 4.98-7.442 9.116-8.52a12.608 12.608 0 012.817-.437c.516-.026.98-.043 1.031-.039.08.007.092.134.08.788z" fill="#DE596D"/></svg>