<svg width="32" height="33" fill="none" xmlns="http://www.w3.org/2000/svg"><g clip-path="url(#clip0_277_431)"><path fill-rule="evenodd" clip-rule="evenodd" d="M21.809.76c-.693.75-2.78 3.535-2.85 3.804-.087.327.31.69.625.57.086-.033.267-.209.401-.39 1.358-1.845 2.179-2.895 2.264-2.895.07 0 .927 1.073 1.697 2.125C25.552 6.17 26.58 7.948 27.04 9.33c.232.7.246 1.7.032 2.454-.715 2.523-3.213 4.112-5.714 3.633a5.052 5.052 0 01-4.087-4.63c-.043-.637.072-1.21.412-2.06.106-.264.192-.557.192-.652 0-.342-.489-.575-.767-.365-.144.108-.45.809-.642 1.466-.62 2.13.277 4.667 2.157 6.095.524.397 1.52.88 2.158 1.048 2.671.698 5.546-.62 6.813-3.125.386-.762.656-1.862.656-2.667 0-1.324-.783-3.142-2.406-5.584-.917-1.378-2.696-3.721-3.262-4.296-.225-.228-.495-.188-.773.114zM18 6.006c-.28.28-.08.812.307.812.277 0 .387-.063.474-.27.094-.225.02-.511-.158-.606-.19-.101-.489-.07-.623.064zm7.531 4.01c-.203.11-.281.249-.281.498 0 .787-.347 1.54-1.01 2.194-.28.277-.49.537-.49.607 0 .215.136.43.32.506.265.11.497-.011 1.003-.522.684-.691 1.177-1.837 1.174-2.731-.001-.3-.072-.436-.29-.552-.167-.09-.264-.09-.426 0zm-3.628 3.643c-.31.31-.09.846.347.846.257 0 .5-.243.5-.5 0-.256-.243-.5-.5-.5a.504.504 0 00-.347.154zM5.375 15.862c-1.244.137-2.312.377-3.857.867-1.141.363-1.268.442-1.268.793 0 .212.249.484.443.484.075 0 .603-.152 1.175-.338 1.23-.4 2.189-.622 3.257-.756.889-.111 1.031-.165 1.12-.418a.483.483 0 00-.192-.576c-.14-.098-.23-.105-.678-.056zm2.073.1c-.42.447.151 1.109.63.732.207-.163.261-.393.144-.619a.475.475 0 00-.774-.112zm2.137.17a.593.593 0 00-.335.484c0 .253.244.416.906.603 1.24.35 2.133.812 3.306 1.708 2.06 1.572 2.07 1.579 2.305 1.579.384 0 .608-.42.39-.732-.053-.073-.532-.466-1.067-.873l-1.35-1.028c-.854-.653-2.083-1.262-3.178-1.574-.748-.213-.826-.226-.977-.168zm14.196 1.791c-.442.1-.788.265-1.208.58-.499.375-3.285 2.372-3.447 2.471-.052.032-.699.16-1.438.284l-1.344.226-.801-.398c-2.936-1.459-5.623-2.442-6.99-2.557-.458-.039-.486-.033-.641.121-.207.208-.215.496-.019.692.114.113.24.151.61.183 1.2.102 3.898 1.115 6.653 2.498l1 .502 1.642-.269 1.642-.27 1.702-1.215c.936-.668 1.844-1.324 2.018-1.458.358-.274.752-.432 1.075-.432.237 0 .703.12.703.182 0 .112-1.987 1.976-3.344 3.137l-1.563 1.337-2.278.509c-2.466.55-2.503.565-2.503.97 0 .222.247.49.45.488.08-.001 1.188-.235 2.463-.52l2.32-.517 1.9-1.631c1.044-.897 2.341-2.079 2.883-2.626.872-.881.984-1.018.984-1.201 0-.36-.633-.847-1.341-1.032-.353-.091-.853-.116-1.128-.054zm3.34 1.96c-.542.129-.935.32-1.028.5-.134.258-.117.358.096.572.214.213.282.212.905-.014.568-.206 1.248-.157 1.82.131.234.118.433.243.442.277.01.035-1.578.91-3.529 1.947-2.833 1.505-4.062 2.117-6.115 3.046l-2.568 1.164H14.37l-5.253-2.5-5.253-2.5H.557l-.154.153a.47.47 0 000 .693l.154.154h3.08l5.25 2.5 5.251 2.5h1.534l6.25 2c3.438 1.1 6.307 2 6.376 2 .207 0 .383-.198.515-.577.248-.713.106-1.622-.35-2.243-.386-.526-.733-.727-1.913-1.11-.857-.278-1.004-.278-1.2.002-.284.406-.05.642.979.985.897.3 1.12.429 1.383.803.144.204.193.351.214.649.026.353.018.381-.086.341-.097-.037-9.2-2.96-9.652-3.1-.147-.045-.134-.058.187-.205l2.473-1.126c1.583-.72 3.097-1.484 5.906-2.98 2.077-1.108 3.826-2.07 3.887-2.14.227-.262.148-.476-.359-.973-.506-.496-1.078-.812-1.707-.944-.38-.08-1.127-.082-1.454-.005zm.776 4.122c-.17.069-.334.302-.334.475 0 .073.058.208.129.298.125.159.15.164.734.155.742-.011 1.183.106 1.626.431.177.13.322.255.322.278.001.06.163.02-4.061 1.014-4.15.977-4.063.948-4.063 1.36 0 .222.247.49.45.488.08-.001 2.097-.463 4.485-1.026 4.68-1.103 4.565-1.066 4.565-1.47 0-.094-.107-.337-.239-.54a3.487 3.487 0 00-1.944-1.424c-.367-.109-1.435-.134-1.67-.039z" fill="#DE596D"/></g><defs><clipPath id="clip0_277_431"><path fill="#fff" transform="translate(0 .5)" d="M0 0h32v32H0z"/></clipPath></defs></svg>