<svg width="32" height="32" fill="none" xmlns="http://www.w3.org/2000/svg"><path fill-rule="evenodd" clip-rule="evenodd" d="M13.032.057c-2.244.332-5.087 2.451-7.047 5.255-1.06 1.516-1.77 3.074-2.011 4.406a15.9 15.9 0 00-.125.992 15.55 15.55 0 01-.157 1.152c-.23 1.234-.387 3.67-.286 4.466.171 1.347 1.458 4.12 2.643 5.694.35.465.39.555.58 1.281.439 1.684 1 3.063 1.571 3.864 2.526 3.54 5.249 5.147 8.06 4.756 2.094-.291 4.062-1.676 6.004-4.224.317-.416.678-.93.804-1.145.531-.907 1.132-2.532 1.307-3.54.053-.302.131-.595.174-.652l.424-.565c.63-.84 1.114-1.708 2.18-3.91 1.114-2.3 1.244-2.62 1.414-3.459.139-.686.094-2.077-.087-2.692-.687-2.332-2.594-4.475-6.15-6.913-.449-.308-.48-.344-.605-.719-.323-.964-1.083-1.933-1.998-2.548-.515-.347-1.393-.761-2.102-.993-1.377-.45-3.438-.677-4.593-.506zm1.969 1.342c1.154.085 2.436.438 3.403.937 1.66.857 2.391 2.119 2.193 3.78-.17 1.412-.732 2.57-1.846 3.801-.59.651-1.99 1.72-3.313 2.526-.988.602-2.652 1.55-3.375 1.923-1.878.967-3.52 2.216-4.346 3.303-.399.525-.825 1.394-1 2.04-.075.276-.148.54-.163.59-.06.202-1.172-1.99-1.567-3.09-.209-.581-.226-.687-.253-1.527-.04-1.228.167-3.524.362-4.039.06-.155 3.224-2.036 5.436-3.229 1.588-.857 5.345-2.401 6.738-2.77.662-.175.809-.275.882-.6.085-.378-.116-.711-.47-.777-.557-.105-2.645.625-5.775 2.017-1.619.72-2.455 1.165-5.166 2.747-.728.425-1.342.772-1.365.772-.121 0 .295-1.227.69-2.031.99-2.025 2.689-3.983 4.546-5.242.732-.496 1.191-.734 1.833-.95.785-.263 1.116-.287 2.556-.181zm7.866 5.46c2.281 1.718 3.678 3.348 4.215 4.918.46 1.345.321 2.6-.46 4.16a113.3 113.3 0 00-.905 1.875c-.635 1.344-1.311 2.582-1.371 2.508-.022-.026-.088-.24-.148-.476a6.67 6.67 0 00-.954-2.046c-.812-1.128-2.456-2.413-4.274-3.342-.63-.322-2.058-1.13-2.147-1.215-.03-.028.153-.19.406-.361 1.774-1.2 3.12-2.579 3.916-4.014.266-.481.617-1.529.71-2.124.044-.276.105-.501.136-.501.03 0 .425.278.876.618zm-6.397 7.738c.532.308 1.306.737 1.718.953 1.41.741 2.763 1.675 3.415 2.357.852.89 1.264 1.754 1.46 3.052.177 1.184.104 1.834-.356 3.149-.368 1.052-.784 1.837-1.418 2.676-2.011 2.662-3.806 3.84-5.85 3.84-1.58 0-2.94-.673-4.455-2.204-.933-.944-1.702-1.954-2.109-2.773-.363-.732-.797-1.983-1.035-2.985-.137-.577-.141-.651-.071-1.344.258-2.552 1.48-3.952 5.138-5.89a57.175 57.175 0 001.717-.954c.446-.26.826-.465.844-.455l1.002.578z" fill="#DE596D"/></svg>