<svg width="32" height="32" fill="none" xmlns="http://www.w3.org/2000/svg"><path fill-rule="evenodd" clip-rule="evenodd" d="M5.719.088C5.466.203.149 5.545.065 5.768.021 5.887 0 9.97 0 18.691c0 11.274.011 12.77.095 12.933.205.397-.411.373 9.311.373 9.832 0 9.134.03 9.321-.417.115-.275.066-.521-.142-.716l-.158-.149-8.541-.03-8.542-.032-.016-11.982L1.312 6.69l2.468-.019 2.468-.018.204-.204.204-.205.019-2.467.018-2.468h14.62V6.46c0 2.831.017 5.236.038 5.343.085.424.537.66.918.478.408-.193.387.14.387-6.12 0-5.398-.006-5.702-.113-5.86a.719.719 0 00-.306-.235C22.103.018 19.574-.002 13.975 0 7.302.002 5.874.017 5.72.088zM5.312 3.81v1.5h-3.03l1.5-1.5c.824-.825 1.505-1.5 1.514-1.5.01 0 .016.675.016 1.5zm.407 4.274c-.398.174-.482.722-.161 1.043l.182.183h11.188l.192-.192c.264-.263.267-.597.01-.885l-.182-.204-5.521-.014c-4.452-.01-5.557.002-5.708.069zm0 4c-.398.174-.482.723-.161 1.043l.182.183h11.188l.192-.192c.264-.264.267-.597.01-.885l-.182-.204-5.521-.014c-4.452-.01-5.557.002-5.708.069zm22.339 1.296c-1.071.124-1.96.567-2.768 1.38-.304.307-.561.549-.57.538-.01-.01-.108-.23-.22-.488-.274-.633-.666-1.296-.81-1.374a1.025 1.025 0 00-.378-.063.52.52 0 00-.442.182c-.27.27-.245.506.129 1.238.37.728.717 1.758.85 2.53.054.31.088.57.077.58-.01.01-.245-.073-.52-.184-.704-.285-1.087-.363-1.742-.358-1.763.014-3.077 1.068-3.834 3.073-.833 2.206-.575 5.17.671 7.72.511 1.046.93 1.653 1.622 2.351 1.061 1.07 1.889 1.457 3.127 1.46.517 0 .64-.022.96-.171.203-.094.403-.171.446-.171.043 0 .244.076.446.17.326.15.439.169 1.023.167.667-.002.973-.066 1.579-.329 1.637-.712 3.23-2.98 3.913-5.57.375-1.423.464-2.595.293-3.88-.35-2.63-1.636-4.347-3.55-4.743l-.36-.074.246-.293a4.406 4.406 0 001.05-2.649c.028-.498.016-.634-.068-.763-.193-.294-.47-.36-1.17-.279zm-.142 1.457c-.019.05-.063.198-.099.33-.102.381-.478.961-.833 1.288-.316.29-1.01.671-1.382.757-.177.041-.179.038-.138-.177.121-.648.685-1.44 1.305-1.83.257-.163.949-.449 1.097-.454.049-.002.07.035.05.087zM5.72 16.085c-.398.174-.482.722-.161 1.044l.182.182h9.812l.19-.16a.612.612 0 00.168-.769c-.207-.4.014-.384-5.236-.38-3.786.001-4.807.018-4.956.083zm17.447 2.97c1.35.533 1.686.532 3.01-.01.77-.315.81-.324 1.418-.326.551-.001.667.018.987.168 1.33.623 2.054 2.236 2.056 4.58 0 1.016-.128 1.77-.477 2.813-.71 2.125-2.004 3.79-3.307 4.26a2.036 2.036 0 01-1.436-.073 1.695 1.695 0 00-1.417-.03c-.515.21-.732.245-1.118.183-1.434-.231-2.911-1.95-3.697-4.302-.353-1.055-.444-1.55-.48-2.602-.064-1.814.347-3.273 1.174-4.179.58-.635 1.11-.862 1.933-.828.465.02.635.063 1.354.346zM5.72 20.085c-.398.174-.482.722-.161 1.044l.182.182h8.52l.182-.182c.339-.339.228-.912-.205-1.063-.304-.106-8.273-.088-8.518.02zm0 4c-.398.174-.482.722-.161 1.044l.182.182h8.52l.182-.182c.339-.339.228-.912-.205-1.063-.304-.106-8.273-.088-8.518.02z" fill="#DE596D"/></svg>