<svg width="30" height="30" fill="none" xmlns="http://www.w3.org/2000/svg"><path fill-rule="evenodd" clip-rule="evenodd" d="M14.658 3.799c-.219.133-.068-.26-1.633 4.252-.671 1.933-1.241 3.544-1.267 3.579-.033.042-1.348.087-4.077.138-3.04.057-4.076.094-4.216.152-.306.126-.446.5-.303.814.04.088 1.384 1.142 3.334 2.615 3.185 2.406 3.267 2.473 3.216 2.624-.406 1.223-2.282 7.567-2.282 7.718 0 .385.332.666.7.592.136-.027 2.95-1.942 6.403-4.359l.453-.316.28.191 3.347 2.321c1.686 1.171 3.143 2.145 3.236 2.163a.587.587 0 00.699-.588c0-.111-.515-1.897-1.143-3.968a512.09 512.09 0 01-1.157-3.841c-.008-.041 1.435-1.17 3.208-2.509 1.772-1.339 3.268-2.506 3.325-2.595.126-.2.13-.378.01-.608-.17-.33-.13-.326-4.478-.405-2.777-.05-4.033-.092-4.078-.137-.035-.036-.612-1.648-1.283-3.581a817.6 817.6 0 00-1.333-3.828c-.18-.493-.568-.664-.961-.424z" fill="#DE596D"/></svg>