<svg width="30" height="31" fill="none" xmlns="http://www.w3.org/2000/svg"><g clip-path="url(#clip0_115_846)"><path d="M10 4.5H4v6h6v-6zm0 8H4v6h6v-6zm8 0h-6v6h6v-6zm-8 8H4v6h6v-6zm8-16h-6v6h6v-6zm8 0h-6v6h6v-6z" fill="#DE596D"/><path d="M23 30a6.5 6.5 0 100-13 6.5 6.5 0 000 13z" stroke="#DE596D"/><path fill-rule="evenodd" clip-rule="evenodd" d="M26 12.5h-6v4.674a6.973 6.973 0 013-.674c1.074 0 2.09.242 3 .674V12.5zm-9.326 8H12v6h4.674a6.973 6.973 0 01-.674-3c0-1.074.242-2.09.674-3z" fill="#DE596D"/><path d="M21 25.5l2-2v-4" stroke="#DE596D"/></g><defs><clipPath id="clip0_115_846"><path fill="#fff" transform="translate(0 .5)" d="M0 0h30v30H0z"/></clipPath></defs></svg>