<svg width="32" height="32" fill="none" xmlns="http://www.w3.org/2000/svg"><path fill-rule="evenodd" clip-rule="evenodd" d="M28.593 2.746l-2.752 2.745-.353-.323c-.66-.604-1.425-.963-2.367-1.11-.43-.067-.808-.056-1.568.044l-.288.038-.556-.512c-1.154-1.064-2.301-1.663-3.801-1.987-.364-.078-.775-.108-1.473-.105-.828.004-1.064.028-1.625.168-1.387.346-2.474.938-3.536 1.927-.381.354-.412.37-.728.37-.767.001-1.706.256-2.346.636-.698.415-1.494 1.303-1.78 1.989-.129.304-.257.395-.816.578a3.481 3.481 0 00-1.575.995c-1.957 2.068-.931 5.432 1.872 6.144.264.068.697.095 1.485.095h1.112v.585c0 .498.02.61.13.75.147.188.453.224.655.077.102-.075.126-.19.152-.735l.031-.646 2.01-.016 2.01-.017.021.62c.026.731.11.882.493.882.342 0 .4-.11.435-.837l.031-.632 1.672-.016c.92-.01 1.672.004 1.672.03 0 .027-.75.799-1.668 1.717l-1.668 1.669-.141-.153c-.183-.197-.517-.208-.685-.021-.091.1-.124.248-.14.64l-.02.51-.729.734c-.4.404-.75.734-.776.734-.026 0-.048-.112-.048-.25 0-.316-.169-.5-.459-.5-.375 0-.444.152-.467 1.022l-.02.76-4.995 5C-.42 31.765-.192 31.505.15 31.847c.344.344.022.633 6.229-5.573l5.728-5.726.335.25c1.069.798 2.187 1.159 3.586 1.156.673-.001.92-.03 1.437-.165a6.015 6.015 0 004.32-4.32c.136-.52.164-.761.164-1.437 0-1.406-.358-2.519-1.154-3.585l-.25-.335 1.788-1.793c1.557-1.56 1.789-1.817 1.789-1.982a.487.487 0 00-.472-.461c-.156 0-.575.393-2.998 2.813l-2.816 2.814-6.376-.017-6.376-.017-.497-.244c-2.383-1.175-2.101-4.433.448-5.181.699-.205.902-.384 1.292-1.133.607-1.166 1.684-1.865 3.004-1.949.88-.056.984-.098 1.56-.627 1.469-1.353 3.139-1.987 4.947-1.876 1.6.098 3.05.74 4.252 1.884.704.668.76.694 1.438.665 1.257-.054 1.611-.035 2.031.106.51.173.946.422 1.33.762l.3.264-.315.333c-.36.38-.399.575-.161.812.337.337.216.438 3.892-3.238C32.283.37 32.182.492 31.844.154c-.332-.333-.27-.383-3.251 2.592zm-3.977 9.178c-1.052.438-1.96.834-2.016.881-.142.119-.135.522.012.655.063.056.2.103.306.103.263 0 3.957-1.529 4.095-1.695a.52.52 0 00.11-.283c0-.193-.263-.46-.45-.458-.08.001-1.005.36-2.057.797zm-4.5 1.171c.281.391.659 1.227.79 1.75.15.59.15 1.72.001 2.312-.264 1.051-.933 2.102-1.76 2.768-.496.399-1.36.826-1.993.985-.588.148-1.72.149-2.313.002-.486-.122-1.585-.636-1.875-.878l-.187-.157 3.53-3.532c1.943-1.943 3.548-3.532 3.568-3.532.02 0 .128.127.24.282zm3.07 2.593c-.271.27-.091.705.324.781.113.02 1.552.03 3.196.02l2.99-.02.15-.175c.186-.215.19-.352.022-.566l-.13-.165h-3.214c-3.13 0-3.217.003-3.339.125zm-18.059.54c-.11.141-.13.252-.13.777 0 .548.016.63.141.77.203.226.469.241.672.038.11-.11.125-.208.125-.812 0-.605-.015-.703-.125-.813a.47.47 0 00-.683.04zm5 0c-.11.141-.13.252-.13.777 0 .553.015.63.146.783.185.215.517.226.682.022.09-.111.11-.26.11-.816 0-.598-.015-.696-.125-.806a.47.47 0 00-.683.04zm-2.5 1.5c-.11.141-.13.252-.13.777 0 .553.015.63.147.784.19.22.51.234.676.028.096-.12.115-.255.115-.823 0-.598-.015-.696-.125-.806a.47.47 0 00-.683.04zm14.974.824c-.137.152-.134.528.006.649.15.129 3.912 1.675 4.077 1.675.179 0 .439-.272.439-.46a.52.52 0 00-.11-.283c-.143-.171-3.834-1.695-4.106-1.695a.448.448 0 00-.306.114zM5.127 19.728c-.11.14-.13.252-.13.747 0 .32.032.652.071.737.145.317.64.346.8.046.037-.069.067-.421.067-.784 0-.578-.016-.677-.125-.786a.47.47 0 00-.683.04zm15.85 1.262a.57.57 0 00-.104.33c0 .198.148.363 1.986 2.197 1.093 1.091 2.034 1.984 2.091 1.984a.787.787 0 00.257-.07c.156-.07.29-.293.29-.478 0-.057-.892-.998-1.982-2.09-1.872-1.876-1.996-1.987-2.21-1.987-.14 0-.265.043-.329.114zm-13.356.245c-.112.142-.13.231-.108.51.043.525.391.727.757.438.145-.113.165-.174.165-.5 0-.445-.13-.62-.464-.62-.16 0-.25.044-.35.172zm5.176 1.375c-.13.15-1.674 3.906-1.674 4.074 0 .181.27.442.459.442.083 0 .21-.05.28-.11.174-.147 1.698-3.84 1.698-4.113 0-.144-.043-.238-.139-.305-.185-.13-.506-.124-.624.012zm5.777-.012c-.096.067-.139.161-.139.305 0 .273 1.524 3.966 1.697 4.113.071.06.198.11.282.11.188 0 .459-.26.459-.442 0-.168-1.544-3.924-1.675-4.074-.118-.136-.439-.142-.624-.012zm-13.447.63c-.102.13-.13.254-.13.585 0 .527.142.75.474.75.36 0 .464-.165.464-.739 0-.43-.017-.505-.145-.625-.204-.192-.499-.18-.663.029zm10.563-.044c-.067.066-.139.242-.16.39-.022.149-.03 1.588-.02 3.198l.019 2.927.175.15c.222.191.366.191.587 0l.175-.15.02-2.927c.01-1.61.001-3.05-.02-3.198-.048-.327-.216-.51-.468-.51a.499.499 0 00-.308.12z" fill="#DE596D"/></svg>