<svg width="24" height="16" viewBox="0 0 24 16" fill="none" xmlns="http://www.w3.org/2000/svg">
<path fill-rule="evenodd" clip-rule="evenodd" d="M10.6875 0.332267C7.73133 0.781704 4.75472 2.46452 1.94531 5.27453C1.02314 6.19689 0.325781 7.0067 0.169125 7.33717C0.0671719 7.55214 0.046875 7.66122 0.046875 7.99342C0.046875 8.52485 0.15825 8.75322 0.754172 9.44388C2.808 11.8241 5.49173 13.8764 7.82391 14.8501C9.43683 15.5234 10.6555 15.7578 12.3214 15.7152C13.9105 15.6745 15.1685 15.3615 16.783 14.6048C18.6587 13.7258 20.9143 12.0123 22.6477 10.1497C23.875 8.83075 24 8.63153 24 7.99342C24 7.44733 23.8917 7.23452 23.2248 6.46999C21.4253 4.40697 19.3259 2.70649 17.2706 1.64725C15.8647 0.922704 14.6563 0.518361 13.3359 0.33072C12.7203 0.243251 11.2675 0.244095 10.6875 0.332267ZM12.9254 2.90514C13.6095 3.02711 14.2912 3.3017 14.9062 3.7031C15.2685 3.93949 16.0774 4.74836 16.3138 5.11061C16.8994 6.00803 17.1748 6.92074 17.178 7.97556C17.1833 9.64863 16.4431 11.1289 15.0938 12.1439C14.2039 12.8133 13.1738 13.1497 12.0139 13.1497C9.15309 13.1497 6.86025 10.8548 6.86883 7.99999C6.873 6.61291 7.33697 5.44352 8.27334 4.46003C8.83055 3.8748 9.42445 3.46614 10.114 3.19342C10.4235 3.07099 11.015 2.9096 11.2969 2.87064C11.6269 2.82503 12.5906 2.84547 12.9254 2.90514ZM11.4862 4.33938C10.5791 4.48145 9.73458 4.9623 9.16233 5.66256C8.87203 6.01783 8.53936 6.68285 8.43019 7.12624C8.3137 7.59925 8.32383 8.46602 8.45138 8.93767C8.80116 10.2309 9.80105 11.2179 11.1328 11.5846C11.5895 11.7103 12.4931 11.7004 12.975 11.5644C14.9338 11.0114 16.0724 9.08163 15.6073 7.1028C15.5095 6.68645 15.1725 6.01488 14.8845 5.66256C14.4084 5.07995 13.6105 4.57272 12.9141 4.40992C12.5188 4.31749 11.84 4.28397 11.4862 4.33938Z" fill="white"/>
</svg>
