<svg width="24" height="24" viewBox="0 0 24 24" fill="none" xmlns="http://www.w3.org/2000/svg">
<path fill-rule="evenodd" clip-rule="evenodd" d="M9.13891 1.06659C4.92217 1.76161 1.69017 5.01329 1.07741 9.17712C0.944295 10.0816 0.988124 11.7006 1.16849 12.5409C2.28214 17.7294 7.24253 21.0093 12.4744 20.0165C13.8732 19.751 15.2989 19.0865 16.5402 18.1215L16.9071 17.8362L19.396 20.3304C20.7648 21.7021 21.9579 22.8633 22.0472 22.9108C22.6434 23.2278 23.2277 22.6433 22.9108 22.0468C22.8634 21.9575 21.7027 20.7639 20.3315 19.3944L17.8384 16.9044L18.1236 16.5374C19.9187 14.2264 20.5813 11.4053 19.9922 8.58286C19.2207 4.88644 16.2932 1.96858 12.5428 1.15772C11.8008 0.997304 9.87241 0.945697 9.13891 1.06659ZM12.31 2.42408C13.3585 2.6476 14.2643 3.02809 15.1575 3.6202C17.0282 4.86027 18.2845 6.70749 18.7634 8.9224C18.8944 9.52851 18.9425 10.9801 18.8535 11.6483C18.352 15.4175 15.4207 18.35 11.6532 18.8518C10.9853 18.9407 9.53434 18.8927 8.92849 18.7616C5.62783 18.0473 3.13281 15.5587 2.42469 12.2747C2.24751 11.4531 2.23218 9.82504 2.39409 9.0223C3.07239 5.65862 5.70322 3.02894 9.01867 2.40045C9.77543 2.25693 9.8085 2.25465 10.7923 2.27756C11.435 2.29248 11.906 2.33795 12.31 2.42408Z" fill="#DE596D"/>
</svg>
