<svg width="32" height="33" viewBox="0 0 32 33" fill="none" xmlns="http://www.w3.org/2000/svg">
<path fill-rule="evenodd" clip-rule="evenodd" d="M15.5235 4.18161C15.0664 4.4848 14.0087 5.45642 13.4282 6.10636C11.8913 7.82705 10.8693 9.65398 10.2823 11.7301C10.0637 12.5029 9.84095 13.7438 9.84095 14.1883C9.84095 14.3547 9.81251 14.5085 9.77776 14.53C9.74301 14.5514 9.53913 14.4621 9.32463 14.3314C8.48451 13.8195 7.25039 13.2775 6.21476 12.9658C4.77532 12.5325 3.4692 12.3498 1.77845 12.3453C0.0186981 12.3406 0.0578856 12.2994 0.0635731 14.1489C0.0688231 15.8781 0.232323 17.0265 0.687573 18.5328C1.37826 20.8178 2.5977 22.812 4.38176 24.574C6.83989 27.0018 9.89295 28.4794 13.3386 28.909C14.3205 29.0314 17.7364 29.0314 18.7183 28.909C23.5808 28.3028 27.8016 25.502 30.2073 21.2851C30.8369 20.1816 31.4251 18.5857 31.7067 17.217C31.9222 16.1694 31.9884 15.4604 31.9929 14.1492C31.9993 12.2998 32.0384 12.341 30.2784 12.3444C28.5602 12.3476 27.2529 12.5342 25.7784 12.9869C24.7638 13.2984 23.5379 13.848 22.5574 14.431L22.2425 14.6183L22.1649 13.8864C21.8153 10.5889 20.2136 7.51273 17.5848 5.08967C16.3351 3.93773 16.0683 3.82023 15.5235 4.18161ZM16.9887 6.45142C18.2929 7.74373 19.1765 8.99467 19.8511 10.5037C20.4496 11.8427 20.8259 13.4797 20.8564 14.8765L20.8722 15.5984L20.1001 16.3431C18.4334 17.9507 17.1447 19.895 16.3414 22.0139C16.1883 22.4179 16.0476 22.7483 16.0289 22.7483C16.0102 22.7483 15.9129 22.5304 15.8129 22.2639C14.9258 19.9021 13.6899 18.0096 11.9311 16.3195L11.1534 15.5724V15.1266C11.1534 12.3271 12.3836 9.31567 14.4577 7.03748C14.9198 6.52986 15.9603 5.5608 16.0431 5.5608C16.0688 5.5608 16.4943 5.96155 16.9887 6.45142ZM2.9957 13.7831C6.13401 13.9709 9.45851 15.5849 11.6141 17.967C13.9026 20.496 15.1271 23.4389 15.3177 26.8677L15.3608 27.6435L14.5228 27.6027C10.0424 27.385 5.96839 25.0751 3.52745 21.3684C2.52757 19.85 1.80245 17.8786 1.56364 16.0295C1.45051 15.1534 1.37489 13.845 1.43207 13.7525C1.46139 13.7051 1.62476 13.6922 1.92407 13.7136C2.17057 13.7313 2.65276 13.7625 2.9957 13.7831ZM30.6082 14.5001C30.5188 19.4857 27.6909 23.8783 23.1222 26.128C21.3034 27.0237 19.4807 27.5026 17.5117 27.6023L16.6961 27.6435L16.7397 26.8678C16.8276 25.3059 17.0751 24.0574 17.5638 22.7089C19.0922 18.4924 22.5439 15.2663 26.6796 14.1889C27.7181 13.9184 28.4585 13.8033 29.4972 13.751C30.0128 13.725 30.4769 13.7075 30.5284 13.7122C30.6071 13.7194 30.6199 13.8459 30.6082 14.5001Z" fill="#DE596D"/>
</svg>
