<svg width="32" height="32" viewBox="0 0 32 32" fill="none" xmlns="http://www.w3.org/2000/svg">
<path fill-rule="evenodd" clip-rule="evenodd" d="M13.0321 0.0567828C10.7879 0.388533 7.94534 2.50835 5.98515 5.31191C4.92509 6.82803 4.21422 8.38572 3.97403 9.71841C3.93778 9.91972 3.88165 10.3657 3.84928 10.7095C3.81697 11.0532 3.74609 11.5718 3.69184 11.862C3.46122 13.0957 3.3054 15.5325 3.40628 16.3282C3.57709 17.6753 4.86415 20.4485 6.0489 22.022C6.39897 22.487 6.43959 22.5767 6.62903 23.3032C7.06803 24.9875 7.62853 26.3657 8.20047 27.1673C10.7264 30.7075 13.4488 32.314 16.2593 31.9231C18.3542 31.6317 20.3221 30.2473 22.264 27.6987C22.5807 27.2832 22.9423 26.7681 23.0677 26.5542C23.5993 25.6473 24.1998 24.0217 24.3755 23.014C24.4281 22.7123 24.506 22.419 24.5485 22.3622C24.591 22.3053 24.782 22.0509 24.9728 21.7967C25.6029 20.9575 26.0873 20.0888 27.1533 17.8864C28.2667 15.5862 28.3972 15.267 28.5671 14.4284C28.706 13.7425 28.6608 12.3513 28.4797 11.7361C27.7927 9.4041 25.8862 7.26072 22.3303 4.82272C21.8813 4.51484 21.8507 4.47853 21.7252 4.10397C21.402 3.13972 20.6424 2.17091 19.7273 1.55572C19.2122 1.20941 18.3338 0.79472 17.6247 0.563158C16.2477 0.113283 14.1868 -0.113905 13.0321 0.0567828ZM15.0008 1.39897C16.1548 1.48378 17.4373 1.83697 18.4037 2.3361C20.0631 3.19316 20.7951 4.45485 20.5966 6.11572C20.4278 7.5281 19.8655 8.68616 18.7508 9.91735C18.1615 10.5683 16.7606 11.6363 15.4383 12.4425C14.4496 13.0454 12.7855 13.9937 12.0628 14.366C10.1852 15.3333 8.54241 16.5818 7.71722 17.6687C7.31828 18.1941 6.89215 19.0631 6.71653 19.7095C6.64184 19.9845 6.56859 20.2499 6.55384 20.2993C6.49365 20.5008 5.38228 18.3087 4.98747 17.2095C4.77834 16.6275 4.76091 16.5224 4.73403 15.6823C4.69466 14.4544 4.90053 12.1575 5.09597 11.6433C5.15522 11.4875 8.32047 9.60728 10.5321 8.41416C12.1203 7.55735 15.8774 6.01285 17.2695 5.64447C17.9322 5.4691 18.0787 5.36947 18.1521 5.04428C18.2373 4.66603 18.0358 4.33303 17.6815 4.26653C17.1251 4.16216 15.0371 4.89178 11.9071 6.28422C10.2884 7.00428 9.45184 7.4491 6.74053 9.03128C6.01297 9.45585 5.39897 9.80322 5.37615 9.80322C5.25503 9.80322 5.67115 8.57616 6.06509 7.77172C7.05665 5.74685 8.75497 3.78885 10.6116 2.53003C11.3436 2.03372 11.8031 1.79572 12.4455 1.5801C13.2304 1.3166 13.5613 1.29316 15.0008 1.39897ZM22.8674 6.85916C25.1484 8.57747 26.545 10.2071 27.0822 11.7775C27.5422 13.1217 27.403 14.3775 26.6212 15.9372C26.4378 16.303 26.0308 17.1467 25.7168 17.8122C25.0824 19.1564 24.4057 20.3943 24.3458 20.3202C24.3243 20.2937 24.2576 20.0794 24.1976 19.844C24.027 19.1749 23.6453 18.3564 23.2435 17.7983C22.4316 16.6703 20.7883 15.3852 18.9696 14.456C18.3398 14.1342 16.9121 13.3264 16.8227 13.2412C16.7934 13.2133 16.9762 13.0508 17.2289 12.8799C19.0029 11.6804 20.3485 10.301 21.1445 8.86572C21.4113 8.38453 21.7622 7.33722 21.8558 6.74216C21.8992 6.46635 21.9598 6.24072 21.9905 6.24072C22.0213 6.24072 22.4158 6.51903 22.8674 6.85916ZM16.4696 14.5966C17.0024 14.9045 17.7758 15.3337 18.1883 15.5504C19.5982 16.2912 20.9508 17.2246 21.6029 17.9067C22.4549 18.7978 22.8675 19.6606 23.0625 20.9595C23.2403 22.1435 23.167 22.7932 22.7072 24.1076C22.3389 25.1603 21.923 25.9455 21.2895 26.7838C19.278 29.4462 17.4827 30.6245 15.4383 30.6245C13.8597 30.6245 12.4996 29.9513 10.984 28.4196C10.0508 27.4765 9.28247 26.4662 8.87547 25.647C8.51191 24.915 8.07759 23.6637 7.83953 22.6617C7.70259 22.0853 7.69866 22.0107 7.76866 21.318C8.02653 18.7663 9.24822 17.366 12.9071 15.4278C13.4055 15.1638 14.1782 14.7346 14.624 14.4741C15.0699 14.2135 15.4496 14.0086 15.4678 14.0187C15.486 14.0287 15.9368 14.2888 16.4696 14.5966Z" fill="#DE596D"/>
</svg>
